<svg xmlns="http://www.w3.org/2000/svg" viewBox="0 0 66 66" id="accounting"><path d="M40.44 13.83c.55 0 1-.45 1-1s-.45-1-1-1H22.29c-.55 0-1 .45-1 1s.45 1 1 1h18.15zm-27.41 9.09c0 .55.45 1 1 1H48.7c.55 0 1-.45 1-1s-.45-1-1-1H14.03c-.55 0-1 .44-1 1zm7.33 17.67v-6.22c0-.55-.45-1-1-1H4.61c-.55 0-1 .45-1 1v6.22c0 .55.45 1 1 1h14.76c.55 0 .99-.45.99-1zm-2-1H5.61v-4.22h12.76v4.22zm1.51 5.94c0-.99-.81-1.79-1.8-1.79h-3.52c-.99 0-1.79.8-1.79 1.79v3.52c0 .99.8 1.8 1.79 1.8h3.52c.99 0 1.8-.81 1.8-1.8v-3.52zm-2 3.32h-3.11v-3.11h3.11v3.11zm-8.45 4.14H5.91c-.99 0-1.8.81-1.8 1.8v3.51c0 .99.81 1.8 1.8 1.8h3.51c.99 0 1.8-.81 1.8-1.8v-3.51c0-1-.81-1.8-1.8-1.8zm-.2 5.11H6.11v-3.11h3.11v3.11zm2-12.57c0-.99-.81-1.79-1.8-1.79H5.91c-.99 0-1.8.8-1.8 1.79v3.52c0 .99.81 1.8 1.8 1.8h3.51c.99 0 1.8-.81 1.8-1.8v-3.52zm-2 3.32H6.11v-3.11h3.11v3.11zm8.85 4.14h-3.52c-.99 0-1.79.81-1.79 1.8v3.51c0 .99.8 1.8 1.79 1.8h3.52c.99 0 1.8-.81 1.8-1.8v-3.51c0-1-.81-1.8-1.8-1.8zm-.2 5.11h-3.11v-3.11h3.11v3.11z"></path><path d="M65.77 12.6a4.947 4.947 0 0 0-2.31-3 4.955 4.955 0 0 0-6.76 1.83l-1.68 2.93v.01l-.07.12V5.84c0-1.93-1.57-3.51-3.5-3.51H11.3c-1.93 0-3.51 1.57-3.51 3.51v20.83c0 .55.45 1 1 1s1-.45 1-1V5.84c0-.83.68-1.51 1.51-1.51h40.14c.83 0 1.5.68 1.5 1.51v12.15L44.91 32H23.84a2.828 2.828 0 0 0-2.75-2.2H2.88c-1.56 0-2.83 1.27-2.83 2.83v16.41c0 .55.45 1 1 1s1-.45 1-1V32.63c0-.46.37-.83.83-.83h18.2c.46 0 .83.37.83.83v28.19c0 .46-.37.84-.83.84H2.88c-.46 0-.83-.38-.83-.84v-6.84c0-.55-.45-1-1-1s-1 .45-1 1v6.84c0 1.56 1.27 2.84 2.83 2.84h48.56c1.93 0 3.5-1.57 3.5-3.51v-8.12c0-.55-.45-1-1-1s-1 .45-1 1v8.12c0 .83-.67 1.51-1.5 1.51H23.78c.08-.27.14-.54.14-.84v-6.66H48.7c.55 0 1-.45 1-1s-.45-1-1-1H23.92v-8.08h20.34c.01 0 .03-.01.04-.01.1 0 .2-.03.3-.06l.12-.06c.04-.02.07-.03.11-.05l7.6-5.31.02-.02c.02-.01.03-.03.04-.04.08-.07.15-.15.2-.23l.03-.03.22-.38v9.83c0 .55.45 1 1 1s1-.45 1-1V34.41l8.67-15.12v-.01l1.68-2.93c.66-1.14.83-2.48.48-3.75zM23.92 34h20.07l-.65 8.08H23.92V34zm21.5 7.05.45-5.55.73.42 3.39 1.94-4.57 3.19zm6.07-4.64-5.12-2.94 9.89-17.25 5.12 2.94-9.89 17.25zm12.06-21.05-1.19 2.07-5.12-2.94 1.18-2.06c.81-1.41 2.62-1.9 4.03-1.09 1.42.8 1.91 2.61 1.1 4.02z"></path></svg>